# AST/ASF file generated using VICON BodyLanguage
# -----------------------------------------------
:version 1.10
:name VICON
:units
  mass 1.0
  length 0.45
  angle deg
:documentation
   .ast/.asf automatically generated from VICON data using
   VICON BodyBuilder and BodyLanguage model FoxedUp or BRILLIANT.MOD
:root
   order TX TY TZ RX RY RZ
   axis XYZ
   position 0 0 0  
   orientation 0 0 0 
:bonedata
  begin
     id 1 
     name lhipjoint
     direction 0.61886 -0.69539 0.365302 
     length 2.20474 
     axis 0 0 0  XYZ
  end
  begin
     id 2 
     name lfemur
     direction 0.34202 -0.939693 0  
     length 6.65149  
     axis 0 0 20  XYZ
    dof rx ry rz
    limits (-160.0 20.0)
           (-70.0 70.0)
           (-60.0 70.0)
  end
  begin
     id 3 
     name ltibia
     direction 0.34202 -0.939693 0   
     length 6.35814   
     axis 0 0 20   XYZ
    dof rx
    limits (-10.0 170.0)
  end
  begin
     id 4 
     name lfoot
     direction 0.101224 -0.278109 0.955201   
     length 2.18766   
     axis -90 7.62852e-016 20   XYZ
    dof rx rz
    limits (-45.0 90.0)
           (-70.0 20.0)
  end
  begin
     id 5 
     name ltoes
     direction 1.53524e-011 -4.21877e-011 1   
     length 1.09206   
     axis -90 7.62852e-016 20   XYZ
    dof rx
    limits (-90.0 20.0)
  end
  begin
     id 6 
     name rhipjoint
     direction -0.600207 -0.708087 0.371972   
     length 2.1652  
     axis 0 0 0  XYZ 
  end
  begin
     id 7 
     name rfemur
     direction -0.34202 -0.939693 0   
     length 6.54691   
     axis 0 0 -20   XYZ
    dof rx ry rz
    limits (-160.0 20.0)
           (-70.0 70.0)
           (-70.0 60.0)
  end
  begin
     id 8 
     name rtibia
     direction -0.34202 -0.939693 0   
     length 6.37474   
     axis 0 0 -20   XYZ
    dof rx
    limits (-10.0 170.0)
 end
 begin
     id 9 
     name rfoot
     direction -0.111266 -0.3057 0.945604   
     length 2.00903  
     axis -90 -7.62852e-016 -20   XYZ
    dof rx rz
    limits (-45.0 90.0)
           (-20.0 70.0)
  end
  begin
     id 10 
     name rtoes
     direction -1.5362e-011 -4.21913e-011 1   
     length 1.00221   
     axis -90 -7.62852e-016 -20   XYZ
    dof rx
    limits (-90.0 20.0)
  end
  begin
     id 11 
     name lowerback
     direction -0.0224561 0.999731 -0.00577314   
     length 2.10409   
     axis 0 0 0   XYZ
    dof rx ry rz
    limits (-20.0 45.0)
           (-30.0 30.0)
           (-30.0 30.0)
  end
  begin
     id 12 
     name upperback
     direction 0.0213126 0.999185 -0.0342817   
     length 2.09783   
     axis 0 0 0   XYZ
    dof rx ry rz
    limits (-20.0 45.0)
           (-30.0 30.0)
           (-30.0 30.0)
  end
  begin
     id 13 
     name thorax
     direction 0.0312356 0.999036 -0.0308451   
     length 2.09788   
     axis 0 0 0   XYZ
    dof rx ry rz
    limits (-20.0 45.0)
           (-30.0 30.0)
           (-30.0 30.0)
  end
  begin
     id 14 
     name lowerneck
     direction -0.0114419 0.996481 0.0830329   
     length 1.38575   
     axis 0 0 0   XYZ
    dof rx ry rz
    limits (-20.0 45.0)
           (-30.0 30.0)
           (-30.0 30.0)
  end
  begin
     id 15 
     name upperneck
     direction -0.0075675 0.996187 -0.0869092   
     length 1.39401   
     axis 0 0 0   XYZ
    dof rx ry rz
    limits (-20.0 45.0)
           (-30.0 30.0)
           (-30.0 30.0)
  end
  begin
     id 16
     name head
     direction -0.00222073 0.999264 -0.0382974  
     length 1.3964  
     axis 0 0 0   XYZ
    dof rx ry rz
    limits (-20.0 45.0)
           (-30.0 30.0)
           (-30.0 30.0)
  end
  begin
     id 17 
     name lclavicle
     direction 0.965962 0.222138 0.132556  
     length 2.81514  
     axis 0 0 0   XYZ
    dof ry rz
    limits (-20.0 10.0)
           (0.0 20.0)
  end
  begin
     id 18 
     name lhumerus
     direction 1 -4.48972e-011 7.03471e-018   
     length 4.47366   
     axis 180 -30 -90   XYZ
    dof rx ry rz
    limits (-60.0 90.0)
           (-90.0 90.0)
           (-90.0 90.0)
  end
  begin
     id 19
     name lradius
     direction 1 -4.48951e-011 -6.22192e-028   
     length 3.19948   
     axis 180 -30 -90   XYZ
    dof rx
    limits (-10.0 170.0)
  end
  begin
     id 20
     name lwrist
     direction 1 -4.48967e-011 -1.24264e-027   
     length 1.59974   
     axis 1.40095e-015 90 90   XYZ
    dof ry
    limits (-180.0 0.0)
 end
  begin
     id 21 
     name lhand
     direction 1 -4.4897e-011 -2.48528e-027   
     length 0.492667   
     axis 1.58582e-015 90 90   XYZ
    dof rx rz
    limits (-90.0 90.0)
           (-45.0 45.0)
  end
  begin
     id 22 
     name lfingers
     direction 1 -4.48996e-011 -4.97056e-027   
     length 0.397201   
     axis 3.17164e-015 90 90   XYZ
    dof rx
    limits (0.0 90.0)
  end
  begin
     id 23
     name lthumb
     direction 0.707107 -6.34981e-011 0.707107   
     length 0.570303   
     axis -90 45 2.85299e-015   XYZ
    dof rx rz
    limits (-45.0 45.0)
           (-45.0 45.0)
  end
  begin
     id 24 
     name rclavicle
     direction -0.961164 0.229034 0.153972   
     length 3.09348  
     axis 0 0 0   XYZ 
    dof ry rz
    limits (-10.0 20.0)
           (-20.0 0.0)
  end
  begin
     id 25 
     name rhumerus
     direction -1 -4.48971e-011 -9.06263e-028  
     length 4.3269   
     axis 180 30 90   XYZ
    dof rx ry rz
    limits (-90.0 60.0)
           (-90.0 90.0)
           (-90.0 90.0)
  end
  begin
     id 26 
     name rradius
     direction -1 -4.48953e-011 1.44659e-027   
     length 3.1896   
     axis 180 30 90   XYZ
    dof rx
    limits (-10.0 170.0)
  end
  begin
     id 27 
     name rwrist
     direction -1 -4.48988e-011 -1.24264e-027   
     length 1.5948   
     axis 1.40095e-015 -90 -90   XYZ
    dof ry
    limits (-180.0 0.0)
  end
  begin
     id 28
     name rhand
     direction -1 -4.49033e-011 -2.48528e-027   
     length 0.464496   
     axis 1.58582e-015 -90 -90   XYZ
    dof rx rz
    limits (-90.0 90.0)
           (-45.0 45.0)
  end
  begin
     id 29
     name rfingers
     direction -1 -4.48905e-011 -4.97056e-027   
     length 0.374489   
     axis 3.17164e-015 -90 -90   XYZ
    dof rx
    limits (0.0 90.0)
  end
  begin
     id 30
     name rthumb
     direction -0.707107 -6.34909e-011 0.707107   
     length 0.537693   
     axis -90 -45 -2.85299e-015   XYZ
    dof rx rz
    limits (-45.0 45.0)
           (-45.0 45.0)
  end
:hierarchy
  begin
    root lhipjoint rhipjoint lowerback
    lhipjoint lfemur
    lfemur ltibia
    ltibia lfoot
    lfoot ltoes
    rhipjoint rfemur
    rfemur rtibia
    rtibia rfoot
    rfoot rtoes
    lowerback upperback
    upperback thorax
    thorax lowerneck lclavicle rclavicle
    lowerneck upperneck
    upperneck head
    lclavicle lhumerus
    lhumerus lradius
    lradius lwrist
    lwrist lhand lthumb
    lhand lfingers
    rclavicle rhumerus
    rhumerus rradius
    rradius rwrist
    rwrist rhand rthumb
    rhand rfingers
  end

#!OML:ASF G:\acrobat\cartwheel_test 2\Patient 1\Session 2\acrobat4.ASF
:FULLY-SPECIFIED
:DEGREES
1154
root 9.67068 20.6437 6.33188 185.192 -0.952615 179.041
lowerback -1.7527 1.64361 -5.12842
upperback 1.16383 2.31327 0.398504
thorax 1.96309 1.07642 3.35926
lowerneck -13.8362 -2.07889 -4.80657
upperneck 35.2823 -6.66245 3.43523
head 14.8014 -4.19751 0.857315
rclavicle -1.63124e-014 9.33046e-015
rhumerus -1.17177 -28.5046 -6.3005
rradius 33.9994
rwrist 18.3013
rhand -24.0098 -29.5276
rfingers 7.12502
rthumb 2.46789 -59.4931
lclavicle -1.63124e-014 9.33046e-015
lhumerus -1.46084 33.3665 -5.68458
lradius 44.9629
lwrist 22.8309
lhand -39.1237 5.2785
lfingers 7.12502
lthumb -12.1229 34.9073
rfemur -16.1648 -8.10939 20.1669
rtibia 57.0325
rfoot -11.7774 -0.980508
rtoes 6.81516
lfemur -26.9206 7.28175 -30.609
ltibia 47.9906
lfoot -30.64 17.2972
ltoes -41.9025
1155
root 9.67214 20.6462 6.26748 184.917 -1.27254 178.808
lowerback -1.52323 1.5685 -5.51776
upperback 1.21561 2.20817 0.359055
thorax 1.88547 1.01847 3.52735
lowerneck -13.4818 -2.17968 -4.80774
upperneck 35.0905 -6.87136 3.54948
head 14.6479 -4.28124 0.879579
rclavicle -1.86516e-014 -6.78353e-015
rhumerus -1.19147 -28.0851 -6.65127
rradius 34.143
rwrist 18.1092
rhand -24.1762 -29.0688
rfingers 7.12502
rthumb 2.30718 -59.0361
lclavicle -1.86516e-014 -6.78353e-015
lhumerus -1.12277 33.4843 -5.70349
lradius 45.1972
lwrist 22.9853
lhand -38.8006 4.80711
lfingers 7.12502
lthumb -11.8114 34.454
rfemur -17.3979 -7.34414 19.4121
rtibia 59.1542
rfoot -11.1447 -2.14533
rtoes 10.8673
lfemur -26.0824 6.90408 -30.7366
ltibia 47.6506
lfoot -30.948 17.1638
ltoes -41.1834
1156
root 9.67207 20.6517 6.20146 184.762 -1.64881 178.629
lowerback -1.45017 1.47749 -5.78536
upperback 1.29436 2.08851 0.327446
thorax 1.9303 0.950753 3.64115
lowerneck -13.0362 -2.35883 -5.10617
upperneck 34.7331 -7.15907 3.88438
head 14.4268 -4.40278 1.03652
rclavicle -1.32332e-014 4.09993e-016
rhumerus -1.33681 -27.7908 -7.02251
rradius 34.3097
rwrist 18.1434
rhand -24.1172 -28.6524
rfingers 7.12502
rthumb 2.36418 -58.6191
lclavicle -1.32332e-014 4.09993e-016
lhumerus -0.789649 33.6704 -5.67363
lradius 45.4929
lwrist 22.9085
lhand -38.3947 4.05682
lfingers 7.12502
lthumb -11.4199 33.7258
rfemur -18.7169 -6.42858 18.7801
rtibia 60.6548
rfoot -11.1355 -4.14704
rtoes 14.4042
lfemur -25.3901 6.55971 -30.8378
ltibia 47.3168
lfoot -31.0863 17.1838
ltoes -41.1898
1157
root 9.66928 20.6606 6.13117 184.676 -2.09485 178.547
lowerback -1.40839 1.29058 -6.01211
upperback 1.34388 1.84138 0.410421
thorax 1.97508 0.820715 3.84833
lowerneck -12.8459 -2.41413 -5.39845
upperneck 34.6906 -7.22684 3.97882
head 14.3852 -4.46811 1.11849
rclavicle 1.7284e-014 -1.01101e-015
rhumerus -1.24027 -27.3957 -7.55406
rradius 34.4834
rwrist 18.1802
rhand -23.6469 -28.0773
rfingers 7.12502
rthumb 2.8184 -58.0384
lclavicle 1.7284e-014 -1.01101e-015
lhumerus -0.906069 33.5198 -5.88852
lradius 45.9583
lwrist 22.932
lhand -37.9311 3.43644
lfingers 7.12502
lthumb -10.9728 33.1297
rfemur -20.0797 -5.372 18.2825
rtibia 61.3617
rfoot -11.6706 -6.11234
rtoes 16.8744
lfemur -24.7882 6.24756 -30.855
ltibia 47.0314
lfoot -31.2949 17.2817
ltoes -41.5612
1158
root 9.66417 20.6706 6.05845 184.593 -2.63056 178.657
lowerback -1.34594 1.07702 -6.06119
upperback 1.38001 1.55278 0.590981
thorax 2.00341 0.673461 4.05535
lowerneck -12.7518 -2.41815 -5.59982
upperneck 34.7753 -7.19513 3.89179
head 14.4049 -4.50464 1.12295
rclavicle -1.54772e-014 1.03865e-014
rhumerus -1.04399 -27.0947 -8.12961
rradius 34.5233
rwrist 18.4067
rhand -23.1553 -27.211
rfingers 7.12502
rthumb 3.29317 -57.1653
lclavicle -1.54772e-014 1.03865e-014
lhumerus -1.08041 33.2715 -6.06521
lradius 46.4006
lwrist 22.8672
lhand -37.3684 2.50816
lfingers 7.12502
lthumb -10.43 32.2294
rfemur -21.3599 -4.18015 18.0249
rtibia 61.2301
rfoot -12.6862 -7.57206
rtoes 18.3746
lfemur -24.2087 5.85009 -30.6658
ltibia 46.8175
lfoot -31.5729 17.4495
ltoes -41.9582
1159
root 9.65868 20.6772 5.9822 184.539 -3.17407 178.896
lowerback -1.3714 0.956075 -5.91898
upperback 1.43853 1.38939 0.76637
thorax 2.09583 0.588898 4.15475
lowerneck -12.541 -2.49905 -5.80078
upperneck 34.6878 -7.26858 3.885
head 14.3302 -4.56698 1.14967
rclavicle 1.12313e-014 4.57205e-015
rhumerus -1.23485 -26.7014 -8.42242
rradius 34.5226
rwrist 18.2826
rhand -23.0049 -27.0827
rfingers 7.12502
rthumb 3.4384 -57.0347
lclavicle 1.12313e-014 4.57205e-015
lhumerus -0.932143 32.9601 -5.99439
lradius 46.8511
lwrist 22.7845
lhand -37.0845 1.84709
lfingers 7.12502
lthumb -10.1561 31.582
rfemur -22.5898 -2.77249 17.9327
rtibia 60.3528
rfoot -13.9265 -8.70366
rtoes 18.965
lfemur -23.7091 5.5043 -30.354
ltibia 46.6666
lfoot -31.6926 17.7568
ltoes -42.5614
1160
root 9.65499 20.679 5.90259 184.483 -3.69529 179.08
lowerback -1.36745 0.866328 -5.85515
upperback 1.4949 1.26665 0.907714
thorax 2.16429 0.523963 4.26309
lowerneck -12.4022 -2.58458 -5.88231
upperneck 34.6031 -7.34225 3.81498
head 14.2654 -4.61645 1.12902
rclavicle -9.56651e-016 -3.67752e-015
rhumerus -1.59242 -26.1793 -8.60297
rradius 34.4377
rwrist 17.8315
rhand -22.7162 -27.0597
rfingers 7.12502
rthumb 3.71716 -57.007
lclavicle -9.56651e-016 -3.67752e-015
lhumerus -0.690393 32.441 -5.99273
lradius 47.3634
lwrist 22.94
lhand -36.8706 1.68653
lfingers 7.12502
lthumb -9.94981 31.4314
rfemur -23.7896 -1.22488 17.7858
rtibia 58.9131
rfoot -15.1878 -9.46972
rtoes 18.6598
lfemur -23.2347 5.32698 -30.0943
ltibia 46.5381
lfoot -31.7144 17.9822
ltoes -43.2319
1161
root 9.64837 20.6797 5.82218 184.459 -4.22483 179.131
lowerback -1.29434 0.790982 -5.87957
upperback 1.52288 1.16087 0.977993
thorax 2.16271 0.469281 4.34607
lowerneck -12.2792 -2.67963 -5.86132
upperneck 34.5027 -7.45854 3.76456
head 14.1967 -4.6665 1.09182
rclavicle -8.23714e-015 -6.16232e-015
rhumerus -2.15285 -25.3279 -8.64792
rradius 34.3278
rwrist 17.0811
rhand -22.1614 -26.6671
rfingers 7.12502
rthumb 4.25296 -56.6044
lclavicle -8.23714e-015 -6.16232e-015
lhumerus -0.251263 32.0799 -5.95991
lradius 47.7647
lwrist 22.843
lhand -36.2992 1.0696
lfingers 7.12502
lthumb -9.39852 30.8401
rfemur -24.9924 0.226389 17.4822
rtibia 57.1061
rfoot -16.3148 -9.71443
rtoes 16.034
lfemur -22.7406 5.15836 -29.9759
ltibia 46.3544
lfoot -31.7555 18.061
ltoes -43.8085
1162
root 9.6367 20.6837 5.74394 184.498 -4.6723 179.042
lowerback -1.23401 0.736745 -5.99459
upperback 1.54687 1.08655 1.0132
thorax 2.16013 0.429146 4.4449
lowerneck -12.0101 -2.79669 -5.97497
upperneck 34.2564 -7.59062 3.81978
head 14.0418 -4.72533 1.12498
rclavicle 6.03808e-015 -1.87852e-014
rhumerus -2.80761 -24.1279 -8.58103
rradius 34.3051
rwrist 16.1298
rhand -22.0147 -26.7964
rfingers 7.12502
rthumb 4.39453 -56.7308
lclavicle 6.03808e-015 -1.87852e-014
lhumerus 0.116784 31.9065 -5.93373
lradius 48.1779
lwrist 22.5175
lhand -35.5658 0.353992
lfingers 7.12502
lthumb -8.69076 30.1551
rfemur -26.2785 1.69084 16.9934
rtibia 55.0832
rfoot -17.3238 -9.60095
rtoes 11.486
lfemur -22.2257 4.91357 -30.0317
ltibia 46.0428
lfoot -31.7793 18.1572
ltoes -44.2477
1163
root 9.62313 20.6954 5.66576 184.547 -4.98426 178.897
lowerback -1.18475 0.671195 -6.21738
upperback 1.61151 0.99974 1.07967
thorax 2.20604 0.377602 4.63767
lowerneck -11.8135 -2.88255 -6.21379
upperneck 33.98 -7.6231 3.89026
head 13.8907 -4.74861 1.20109
rclavicle 1.05356e-014 -6.36111e-015
rhumerus -2.89871 -23.9187 -8.92557
rradius 33.975
rwrist 16.3017
rhand -22.1401 -26.7824
rfingers 7.12502
rthumb 4.27345 -56.7193
lclavicle 1.05356e-014 -6.36111e-015
lhumerus 0.191713 31.7838 -6.07049
lradius 48.7198
lwrist 22.3546
lhand -34.9637 0.168918
lfingers 7.12502
lthumb -8.10978 29.9933
rfemur -27.6138 3.27495 16.4085
rtibia 52.954
rfoot -18.6203 -9.47356
rtoes 6.70378
lfemur -21.6322 4.69653 -30.1613
ltibia 45.5587
lfoot -31.9179 18.2365
ltoes -44.4698
1164
root 9.60931 20.719 5.58774 184.622 -5.28728 178.857
lowerback -1.14669 0.613199 -6.37629
upperback 1.69433 0.92195 1.16193
thorax 2.27737 0.329736 4.81161
lowerneck -11.8961 -2.92677 -6.25279
upperneck 33.8817 -7.59327 3.81486
head 13.8615 -4.73296 1.18423
rclavicle 8.44835e-016 -7.15625e-015
rhumerus -2.84258 -24.3192 -9.49357
rradius 33.5575
rwrist 16.9031
rhand -22.074 -26.8958
rfingers 7.12502
rthumb 4.33731 -56.8314
lclavicle 8.44835e-016 -7.15625e-015
lhumerus 0.284903 31.6249 -6.23758
lradius 49.3819
lwrist 22.4602
lhand -34.818 0.253814
lfingers 7.12502
lthumb -7.96916 30.0836
rfemur -28.9932 4.81592 15.9376
rtibia 50.8345
rfoot -19.8046 -9.53376
rtoes 1.36399
lfemur -21.0221 4.6136 -30.1681
ltibia 44.9149
lfoot -32.0085 18.1896
ltoes -44.6469
1165
root 9.59574 20.7517 5.51047 184.719 -5.67937 178.864
lowerback -1.17785 0.544963 -6.53884
upperback 1.7995 0.835335 1.25337
thorax 2.41281 0.273947 4.99835
lowerneck -12.1122 -2.94405 -6.19186
upperneck 33.9457 -7.56466 3.70672
head 13.9284 -4.71307 1.13007
rclavicle -4.5969e-015 -9.74045e-015
rhumerus -3.02244 -24.505 -9.987
rradius 33.3779
rwrist 17.0237
rhand -21.8803 -27.2834
rfingers 7.12502
rthumb 4.52435 -57.2151
lclavicle -4.5969e-015 -9.74045e-015
lhumerus 0.427485 31.4129 -6.4034
lradius 50.1259
lwrist 22.741
lhand -35.1659 0.290624
lfingers 7.12502
lthumb -8.3049 30.1074
rfemur -30.3997 6.02082 15.6069
rtibia 48.8477
rfoot -19.8295 -9.94013
rtoes -3.68021
lfemur -20.3984 4.62076 -30.1023
ltibia 44.1646
lfoot -31.8552 17.9695
ltoes -44.9161
1166
root 9.58113 20.7856 5.43323 184.76 -6.06177 178.918
lowerback -1.1917 0.490891 -6.67349
upperback 1.92437 0.764718 1.37811
thorax 2.55755 0.224614 5.20461
lowerneck -11.9886 -3.02337 -6.35831
upperneck 33.811 -7.68487 3.88237
head 13.8656 -4.75842 1.21601
rclavicle -1.41137e-014 0
rhumerus -3.19162 -24.7184 -10.5203
rradius 33.1918
rwrist 17.1973
rhand -21.7264 -27.3349
rfingers 7.12502
rthumb 4.67297 -57.2633
lclavicle -1.41137e-014 0
lhumerus 0.654106 31.4371 -6.48051
lradius 50.7069
lwrist 22.7504
lhand -35.4039 -0.15745
lfingers 7.12502
lthumb -8.53455 29.6501
rfemur -31.7554 6.74541 15.529
rtibia 47.0845
rfoot -19.3186 -10.9224
rtoes -8.543
lfemur -19.7063 4.6339 -29.9821
ltibia 43.3969
lfoot -31.5461 17.7947
ltoes -45.3381
